HIERARCHY
ROOT Hips
{
	OFFSET 0.000000 71.427986 0.000000
	CHANNELS 6 Xposition Yposition Zposition Xrotation Yrotation Zrotation
	JOINT Pelvis
	{
		OFFSET 0.000000 0.000000 0.000000
		CHANNELS 3 Xrotation Yrotation Zrotation
		JOINT LeftUpLeg
		{
			OFFSET 6.797100 -2.508499 -1.318700
			CHANNELS 3 Xrotation Yrotation Zrotation
			JOINT LeftLeg
			{
				OFFSET 0.069008 -29.241863 0.690200
				CHANNELS 3 Xrotation Yrotation Zrotation
				JOINT LeftFoot
				{
					OFFSET -0.069008 -29.568123 -0.266800
					CHANNELS 3 Xrotation Yrotation Zrotation
					JOINT LeftToeBase
					{
						OFFSET 3.145500 -8.631000 16.059900
						CHANNELS 3 Xrotation Yrotation Zrotation
						End Site
						{
							OFFSET 0.000000 18.501587 0.000000
						}
					}
				}
			}
			JOINT Left_ShortSleeve
			{
				OFFSET 0.265923 -10.480953 1.153800
				CHANNELS 3 Xrotation Yrotation Zrotation
				End Site
				{
					OFFSET 1.725763 19.823879 0.000000
				}
			}
		}
		JOINT RightUpLeg
		{
			OFFSET -6.797100 -2.508499 -1.318700
			CHANNELS 3 Xrotation Yrotation Zrotation
			JOINT RightLeg
			{
				OFFSET -0.082453 -29.241932 0.688000
				CHANNELS 3 Xrotation Yrotation Zrotation
				JOINT RightFoot
				{
					OFFSET 0.082453 -29.568058 -0.264600
					CHANNELS 3 Xrotation Yrotation Zrotation
					JOINT RightToeBase
					{
						OFFSET -3.115300 -8.682800 16.113400
						CHANNELS 3 Xrotation Yrotation Zrotation
						End Site
						{
							OFFSET 0.000000 18.567114 0.000000
						}
					}
				}
			}
			JOINT Right_ShortSleeve
			{
				OFFSET -0.265923 -10.480953 1.153800
				CHANNELS 3 Xrotation Yrotation Zrotation
				End Site
				{
					OFFSET -1.725766 19.823910 0.000000
				}
			}
		}
	}
	JOINT Spine
	{
		OFFSET 0.000000 13.368103 0.470500
		CHANNELS 3 Xrotation Yrotation Zrotation
		JOINT Spine1
		{
			OFFSET 0.147000 13.837402 0.538800
			CHANNELS 3 Xrotation Yrotation Zrotation
			JOINT Spine2
			{
				OFFSET 0.168000 16.242897 -1.435500
				CHANNELS 3 Xrotation Yrotation Zrotation
				JOINT Neck
				{
					OFFSET 0.217200 18.631500 -1.679100
					CHANNELS 3 Xrotation Yrotation Zrotation
					JOINT Head
					{
						OFFSET 0.000000 6.599396 1.385900
						CHANNELS 3 Xrotation Yrotation Zrotation
						JOINT Hat
						{
							OFFSET -0.532200 27.220596 -10.096100
							CHANNELS 3 Xrotation Yrotation Zrotation
							End Site
							{
								OFFSET 0.000000 22.029861 0.000000
							}
						}
						JOINT HairD
						{
							OFFSET -10.777400 17.437393 -1.325900
							CHANNELS 3 Xrotation Yrotation Zrotation
							JOINT HairD1
							{
								OFFSET -3.290299 -11.051193 1.062200
								CHANNELS 3 Xrotation Yrotation Zrotation
								End Site
								{
									OFFSET 0.000000 11.579437 0.000000
								}
							}
						}
						JOINT HairB
						{
							OFFSET -10.777400 17.437393 1.467900
							CHANNELS 3 Xrotation Yrotation Zrotation
							JOINT HairB1
							{
								OFFSET -1.561200 -12.956299 3.590200
								CHANNELS 3 Xrotation Yrotation Zrotation
								End Site
								{
									OFFSET 0.000000 13.534866 0.000000
								}
							}
						}
						JOINT HairA
						{
							OFFSET 9.713100 17.437393 1.467900
							CHANNELS 3 Xrotation Yrotation Zrotation
							JOINT HairA1
							{
								OFFSET 1.561200 -12.956299 3.590200
								CHANNELS 3 Xrotation Yrotation Zrotation
								End Site
								{
									OFFSET 0.000000 13.534866 0.000000
								}
							}
						}
						JOINT HairC
						{
							OFFSET 9.713100 17.437393 -1.325900
							CHANNELS 3 Xrotation Yrotation Zrotation
							JOINT HairC1
							{
								OFFSET 3.290300 -11.051193 1.062200
								CHANNELS 3 Xrotation Yrotation Zrotation
								End Site
								{
									OFFSET 0.000000 11.579437 0.000000
								}
							}
						}
					}
				}
				JOINT LeftShoulder
				{
					OFFSET 5.101800 15.108002 -2.763700
					CHANNELS 3 Xrotation Yrotation Zrotation
					JOINT LeftArm
					{
						OFFSET 9.825497 2.506317 -1.597400
						CHANNELS 3 Xrotation Yrotation Zrotation
						JOINT LeftForeArm
						{
							OFFSET 21.966244 0.000000 0.000000
							CHANNELS 3 Xrotation Yrotation Zrotation
							JOINT LeftHand
							{
								OFFSET 33.879036 0.000000 0.000000
								CHANNELS 3 Xrotation Yrotation Zrotation
								JOINT LeftHandThumb1
								{
									OFFSET 6.715286 -2.359680 3.363841
									CHANNELS 3 Xrotation Yrotation Zrotation
									JOINT LeftHandThumb2
									{
										OFFSET 2.507072 -1.447464 1.447461
										CHANNELS 3 Xrotation Yrotation Zrotation
										JOINT LeftHandThumb3
										{
											OFFSET 2.898338 -1.673355 1.673357
											CHANNELS 3 Xrotation Yrotation Zrotation
											End Site
											{
												OFFSET -0.295959 3.727692 -0.131651
											}
										}
									}
								}
								JOINT LeftHandIndex1
								{
									OFFSET 14.190811 -0.254547 3.840278
									CHANNELS 3 Xrotation Yrotation Zrotation
									JOINT LeftHandIndex2
									{
										OFFSET 3.551727 0.000000 -0.000000
										CHANNELS 3 Xrotation Yrotation Zrotation
										JOINT LeftHandIndex3
										{
											OFFSET 2.894196 0.000000 0.000000
											CHANNELS 3 Xrotation Yrotation Zrotation
											End Site
											{
												OFFSET -1.000603 2.690872 0.366626
											}
										}
									}
								}
								JOINT LeftHandMiddle1
								{
									OFFSET 13.776489 0.000000 0.000000
									CHANNELS 3 Xrotation Yrotation Zrotation
									JOINT LeftHandMiddle2
									{
										OFFSET 3.438232 0.000000 0.000000
										CHANNELS 3 Xrotation Yrotation Zrotation
										JOINT LeftHandMiddle3
										{
											OFFSET 3.691551 0.000000 0.000000
											CHANNELS 3 Xrotation Yrotation Zrotation
											End Site
											{
												OFFSET -1.082298 3.499527 0.457670
											}
										}
									}
								}
								JOINT LeftHandRing1
								{
									OFFSET 13.966164 -0.268127 -3.067488
									CHANNELS 3 Xrotation Yrotation Zrotation
									JOINT LeftHandRing2
									{
										OFFSET 3.162567 0.000000 0.000000
										CHANNELS 3 Xrotation Yrotation Zrotation
										JOINT LeftHandRing3
										{
											OFFSET 3.324348 0.000000 0.000000
											CHANNELS 3 Xrotation Yrotation Zrotation
											End Site
											{
												OFFSET -0.861900 3.184998 0.405154
											}
										}
									}
								}
								JOINT LeftHandPinky1
								{
									OFFSET 13.131393 -0.168503 -5.746925
									CHANNELS 3 Xrotation Yrotation Zrotation
									JOINT LeftHandPinky2
									{
										OFFSET 2.849182 0.000000 0.000000
										CHANNELS 3 Xrotation Yrotation Zrotation
										JOINT LeftHandPinky3
										{
											OFFSET 2.805038 0.000000 0.000000
											CHANNELS 3 Xrotation Yrotation Zrotation
											End Site
											{
												OFFSET -0.882500 2.642609 0.325652
											}
										}
									}
								}
							}
							JOINT Left_Sleeve
							{
								OFFSET 6.592125 -0.646545 0.805568
								CHANNELS 3 Xrotation Yrotation Zrotation
								End Site
								{
									OFFSET -0.000179 20.275787 -0.000000
								}
							}
						}
					}
				}
				JOINT RightShoulder
				{
					OFFSET -5.731700 15.108002 -2.763700
					CHANNELS 3 Xrotation Yrotation Zrotation
					JOINT RightArm
					{
						OFFSET -9.825497 2.506317 -1.597400
						CHANNELS 3 Xrotation Yrotation Zrotation
						JOINT RightForeArm
						{
							OFFSET -21.966242 0.000000 0.000000
							CHANNELS 3 Xrotation Yrotation Zrotation
							JOINT RightHand
							{
								OFFSET -33.879032 0.000000 0.000000
								CHANNELS 3 Xrotation Yrotation Zrotation
								JOINT RightHandThumb1
								{
									OFFSET -6.715286 -2.359680 3.363841
									CHANNELS 3 Xrotation Yrotation Zrotation
									JOINT RightHandThumb2
									{
										OFFSET -2.507072 -1.447464 1.447461
										CHANNELS 3 Xrotation Yrotation Zrotation
										JOINT RightHandThumb3
										{
											OFFSET -2.898338 -1.673355 1.673357
											CHANNELS 3 Xrotation Yrotation Zrotation
											End Site
											{
												OFFSET 0.295959 3.727692 -0.131651
											}
										}
									}
								}
								JOINT RightHandIndex1
								{
									OFFSET -14.190811 -0.254547 3.840278
									CHANNELS 3 Xrotation Yrotation Zrotation
									JOINT RightHandIndex2
									{
										OFFSET -3.551727 0.000000 -0.000000
										CHANNELS 3 Xrotation Yrotation Zrotation
										JOINT RightHandIndex3
										{
											OFFSET -2.894196 0.000000 0.000000
											CHANNELS 3 Xrotation Yrotation Zrotation
											End Site
											{
												OFFSET 1.000603 2.690872 0.366626
											}
										}
									}
								}
								JOINT RightHandMiddle1
								{
									OFFSET -13.776489 0.000000 0.000000
									CHANNELS 3 Xrotation Yrotation Zrotation
									JOINT RightHandMiddle2
									{
										OFFSET -3.438232 0.000000 0.000000
										CHANNELS 3 Xrotation Yrotation Zrotation
										JOINT RightHandMiddle3
										{
											OFFSET -3.691551 0.000000 0.000000
											CHANNELS 3 Xrotation Yrotation Zrotation
											End Site
											{
												OFFSET 1.082298 3.499527 0.457670
											}
										}
									}
								}
								JOINT RightHandRing1
								{
									OFFSET -13.966164 -0.268127 -3.067488
									CHANNELS 3 Xrotation Yrotation Zrotation
									JOINT RightHandRing2
									{
										OFFSET -3.162567 0.000000 0.000000
										CHANNELS 3 Xrotation Yrotation Zrotation
										JOINT RightHandRing3
										{
											OFFSET -3.324348 0.000000 0.000000
											CHANNELS 3 Xrotation Yrotation Zrotation
											End Site
											{
												OFFSET 0.861900 3.184998 0.405154
											}
										}
									}
								}
								JOINT RightHandPinky1
								{
									OFFSET -13.131393 -0.168503 -5.746925
									CHANNELS 3 Xrotation Yrotation Zrotation
									JOINT RightHandPinky2
									{
										OFFSET -2.849182 0.000000 0.000000
										CHANNELS 3 Xrotation Yrotation Zrotation
										JOINT RightHandPinky3
										{
											OFFSET -2.805038 0.000000 0.000000
											CHANNELS 3 Xrotation Yrotation Zrotation
											End Site
											{
												OFFSET 0.882500 2.642609 0.325652
											}
										}
									}
								}
							}
							JOINT Right_Sleeve
							{
								OFFSET -6.592125 -0.646545 0.805568
								CHANNELS 3 Xrotation Yrotation Zrotation
								End Site
								{
									OFFSET 0.000179 20.275787 -0.000000
								}
							}
						}
					}
				}
				JOINT Bind_Right_JacketString
				{
					OFFSET -3.534800 11.969597 7.200700
					CHANNELS 3 Xrotation Yrotation Zrotation
					JOINT Bind_Right_JacketString1
					{
						OFFSET -0.319900 -6.102600 2.794100
						CHANNELS 3 Xrotation Yrotation Zrotation
						End Site
						{
							OFFSET 0.000000 6.719452 0.000000
						}
					}
				}
				JOINT Bind_Left_JacketString
				{
					OFFSET 2.904800 11.969597 7.200700
					CHANNELS 3 Xrotation Yrotation Zrotation
					JOINT Bind_Left_JacketString1
					{
						OFFSET 0.364800 -5.904503 3.186800
						CHANNELS 3 Xrotation Yrotation Zrotation
						End Site
						{
							OFFSET 0.000000 6.719513 0.000000
						}
					}
				}
				JOINT HairE
				{
					OFFSET 5.915200 17.612701 -11.592200
					CHANNELS 3 Xrotation Yrotation Zrotation
					JOINT HairE1
					{
						OFFSET 0.289200 -7.171898 -1.284500
						CHANNELS 3 Xrotation Yrotation Zrotation
						End Site
						{
							OFFSET 0.000000 7.291756 0.000000
						}
					}
				}
				JOINT HairF
				{
					OFFSET -0.864800 17.612701 -11.592200
					CHANNELS 3 Xrotation Yrotation Zrotation
					JOINT HairF1
					{
						OFFSET 0.000000 -14.087097 -2.127501
						CHANNELS 3 Xrotation Yrotation Zrotation
						End Site
						{
							OFFSET 0.000000 14.246841 0.000000
						}
					}
				}
				JOINT HairG
				{
					OFFSET -8.087700 17.612701 -11.592200
					CHANNELS 3 Xrotation Yrotation Zrotation
					JOINT HairG1
					{
						OFFSET -0.293600 -6.081398 -0.910100
						CHANNELS 3 Xrotation Yrotation Zrotation
						End Site
						{
							OFFSET 0.000000 6.156120 0.000000
						}
					}
				}
			}
		}
	}
	JOINT Pouch
	{
		OFFSET 0.000000 4.394501 10.847300
		CHANNELS 3 Xrotation Yrotation Zrotation
		End Site
		{
			OFFSET 0.000000 21.880577 0.000000
		}
	}
	JOINT Bag
	{
		OFFSET -13.229000 4.813004 -0.593300
		CHANNELS 3 Xrotation Yrotation Zrotation
		End Site
		{
			OFFSET 0.000000 21.880577 0.000000
		}
	}
	JOINT OccupyGuyFacialAnim_Joint
	{
		OFFSET 1.000000 -70.206398 -1.655000
		CHANNELS 3 Xrotation Yrotation Zrotation
		End Site
		{
			OFFSET 0.000000 21.880577 0.000000
		}
	}
}
MOTION
Frames: 4
Frame Time: 0.033333
-0.002466 41.868103 1.213045 0.143432 0.112236 1.036721 0.000000 -0.000000 0.000000 -87.398179 -4.979496 11.008601 82.735871 6.772420 0.253988 5.679269 -7.115026 -5.866068 -0.000000 0.000001 0.000000 -0.000000 0.000001 -0.000001 -88.223573 6.615359 -7.405706 82.674392 -6.281053 -1.873612 6.743448 0.054472 6.725556 -0.000000 -0.000000 0.000000 -0.000000 -0.000000 -0.000000 9.673616 -0.113295 -1.645981 -0.246183 0.151947 -0.375313 -0.246550 0.182698 -0.340105 -1.570407 -1.402474 0.784047 -11.467785 -4.539110 -5.450620 0.000000 -0.000000 -0.000001 0.000000 -0.000000 -0.000001 0.000000 -0.000000 -0.000001 0.000000 -0.000000 -0.000000 0.000000 -0.000000 -0.000000 0.000000 -0.000000 -0.000000 0.000000 -0.000000 -0.000000 0.000000 -0.000000 -0.000001 0.000000 -0.000000 -0.000001 1.838490 -13.354170 -3.646703 1.726908 -26.093995 -58.698550 -0.000033 -57.661652 -0.000023 29.108822 3.353165 43.538597 6.610608 1.798258 20.801497 2.716388 20.172569 -24.389164 0.000004 -0.000001 0.000000 -0.187615 2.789360 -26.979399 0.400791 2.131462 -21.296164 0.000001 0.000002 -0.000002 1.294525 7.330054 -16.457850 0.335162 1.954883 -19.455488 0.000003 0.000001 0.000001 1.816675 9.818665 -14.332904 0.208977 1.552309 -15.333925 -0.000001 0.000001 -0.000001 2.037237 10.886517 -13.841588 0.158983 1.356870 -13.364347 -0.000004 -0.000000 0.000001 -0.000001 -0.000003 -0.000000 2.992564 -4.293393 8.481950 -4.724242 37.351774 64.905211 -0.000026 53.655483 0.000033 43.530319 5.390527 -36.130403 -9.383520 -1.613339 -17.604715 3.557105 -24.337021 34.656841 -0.000002 0.000001 -0.000001 2.957831 1.012828 13.529994 0.472452 -2.045660 26.006741 0.000002 0.000001 -0.000001 0.105543 -3.665057 2.525362 0.584997 -2.261681 29.000587 -0.000000 -0.000001 -0.000003 0.456436 -7.644374 4.305918 0.107461 -0.995738 12.319037 0.000001 -0.000000 0.000001 -11.162320 -10.227928 7.169801 0.029119 -0.520522 6.403072 0.000001 0.000002 -0.000001 0.000001 -0.000003 0.000002 -0.000000 0.000000 -0.000000 -0.000000 0.000000 -0.000000 -0.000000 0.000000 0.000000 -0.000000 0.000000 0.000000 -0.000000 0.000000 -0.000000 -0.000000 0.000000 -0.000000 -0.000000 0.000000 0.000000 -0.000000 0.000000 0.000000 -0.000000 0.000000 -0.000000 -0.000000 0.000000 -0.000000 0.000000 -0.000000 0.000000 0.000000 -0.000000 0.000000 0.000000 -0.000000 0.000000 
-0.000886 41.867424 1.212254 0.141115 0.110040 1.040908 -0.000000 0.000000 -0.000000 -87.394641 -4.980854 11.008208 82.736991 6.776805 0.253992 5.678373 -7.115139 -5.871464 -0.000000 0.000000 0.000000 -0.000000 -0.000000 0.000000 -88.224358 6.618643 -7.405511 82.677992 -6.278358 -1.873612 6.742373 0.055100 6.723617 -0.000000 0.000000 0.000000 -0.000000 -0.000000 -0.000000 9.669822 -0.121035 -1.628187 -0.245226 0.152244 -0.375460 -0.245528 0.182268 -0.339888 -1.512803 -1.402183 0.829804 -11.405105 -4.475927 -5.408095 0.000000 -0.000000 -0.000000 0.000000 -0.000000 -0.000000 0.000000 -0.000000 -0.000001 0.000000 -0.000000 -0.000000 0.000000 -0.000000 -0.000000 0.000000 -0.000000 -0.000000 0.000000 -0.000000 -0.000000 0.000000 -0.000000 -0.000000 0.000000 -0.000000 -0.000000 1.854024 -13.309855 -3.531734 1.640322 -26.214276 -58.815462 -0.000010 -57.536311 0.000003 29.048252 3.301808 43.602394 6.610612 1.798259 20.801498 2.716394 20.172571 -24.389169 0.000001 -0.000000 -0.000000 -0.186971 2.792288 -27.006568 0.402483 2.135805 -21.341481 0.000001 -0.000000 0.000005 1.292534 7.328218 -16.434991 0.337393 1.961198 -19.520841 -0.000000 -0.000001 0.000002 1.812860 9.816592 -14.303570 0.210265 1.556974 -15.381439 -0.000003 0.000000 0.000001 2.032444 10.884954 -13.810171 0.160608 1.363717 -13.432749 -0.000005 -0.000001 -0.000001 0.000003 -0.000002 -0.000002 2.994766 -4.315719 8.484399 -4.757166 37.337571 64.945960 -0.000011 53.655910 0.000003 43.582156 5.396191 -36.105070 -9.383518 -1.613340 -17.604714 3.557101 -24.337026 34.656841 -0.000004 0.000002 -0.000000 2.957834 1.012825 13.529996 0.472453 -2.045660 26.006739 0.000001 0.000001 0.000001 0.105545 -3.665058 2.525362 0.584998 -2.261685 29.000587 0.000002 0.000000 -0.000001 0.456436 -7.644378 4.305918 0.107458 -0.995737 12.319036 -0.000001 0.000000 -0.000002 -11.162321 -10.227931 7.169803 0.029118 -0.520522 6.403072 -0.000001 0.000002 -0.000001 -0.000001 -0.000001 0.000000 -0.000000 -0.000000 -0.000000 -0.000000 -0.000000 -0.000000 -0.000000 -0.000000 0.000000 -0.000000 -0.000000 0.000000 -0.000000 -0.000000 -0.000000 -0.000000 -0.000000 -0.000000 -0.000000 -0.000000 0.000000 -0.000000 -0.000000 0.000000 -0.000000 -0.000000 -0.000000 -0.000000 -0.000000 -0.000000 -0.000000 0.000000 -0.000000 -0.000000 0.000000 -0.000000 -0.000000 0.000000 -0.000000 
0.000064 41.867050 1.211101 0.138662 0.108414 1.045063 -0.000000 0.000000 0.000000 -87.390611 -4.981486 11.007511 82.735024 6.779434 0.253985 5.679875 -7.115335 -5.875717 -0.000000 -0.000000 -0.000000 -0.000000 0.000000 0.000000 -88.223375 6.622229 -7.406036 82.679720 -6.275772 -1.873619 6.741680 0.055863 6.724653 0.000000 0.000001 0.000000 -0.000000 -0.000000 -0.000000 9.668033 -0.128287 -1.608255 -0.244117 0.153308 -0.375492 -0.244346 0.182731 -0.339611 -1.460862 -1.396740 0.845182 -11.294729 -4.436756 -5.375003 -0.000000 -0.000000 -0.000000 -0.000000 -0.000000 -0.000000 -0.000000 -0.000000 -0.000000 -0.000000 -0.000000 -0.000000 -0.000000 0.000000 -0.000000 -0.000000 -0.000000 -0.000000 -0.000000 0.000000 -0.000000 -0.000000 -0.000000 -0.000000 -0.000000 -0.000000 -0.000000 1.863043 -13.252078 -3.472534 1.593016 -26.340775 -58.860146 0.000003 -57.440081 -0.000011 28.979956 3.263694 43.650380 6.610610 1.798258 20.801498 2.716389 20.172574 -24.389166 0.000001 0.000001 -0.000001 -0.186458 2.794440 -27.025868 0.403689 2.138871 -21.373902 -0.000001 0.000001 -0.000002 1.291142 7.326901 -16.418901 0.338991 1.965692 -19.567500 0.000003 -0.000001 0.000004 1.809428 9.814721 -14.277033 0.211186 1.560323 -15.415383 -0.000001 0.000000 0.000002 2.028878 10.883871 -13.786710 0.162140 1.370098 -13.496964 -0.000002 -0.000001 0.000001 -0.000002 -0.000000 0.000002 2.995437 -4.342433 8.460524 -4.809046 37.327558 65.021263 -0.000024 53.641837 0.000020 43.636409 5.406283 -36.088664 -9.383516 -1.613338 -17.604712 3.557105 -24.337024 34.656841 0.000004 0.000002 -0.000001 2.957835 1.012825 13.529999 0.472454 -2.045659 26.006743 -0.000000 -0.000001 -0.000002 0.105540 -3.665058 2.525364 0.584995 -2.261682 29.000587 0.000002 -0.000000 0.000003 0.456439 -7.644376 4.305921 0.107460 -0.995737 12.319035 -0.000003 0.000000 -0.000002 -11.162322 -10.227933 7.169805 0.029118 -0.520522 6.403071 0.000002 0.000000 -0.000001 -0.000003 -0.000000 0.000001 -0.000001 0.000000 0.000000 0.000000 0.000000 -0.000000 -0.000001 0.000000 0.000000 -0.000001 0.000000 0.000000 -0.000001 0.000000 0.000000 0.000000 0.000000 -0.000000 -0.000001 0.000000 0.000000 -0.000001 0.000000 0.000000 -0.000001 0.000000 0.000000 0.000000 0.000000 -0.000000 -0.000000 0.000000 0.000000 -0.000000 0.000000 0.000000 -0.000000 0.000000 0.000000 
0.000324 41.866745 1.209808 0.136141 0.107057 1.048627 -0.000000 -0.000000 -0.000000 -87.388138 -4.981441 11.005803 82.735926 6.782286 0.253982 5.679788 -7.115268 -5.875398 -0.000000 0.000000 0.000000 0.000000 0.000000 -0.000000 -88.223429 6.625188 -7.406338 82.682425 -6.273190 -1.873627 6.741106 0.056420 6.721050 0.000000 -0.000000 0.000000 -0.000000 0.000001 -0.000000 9.673890 -0.131699 -1.594776 -0.242641 0.154751 -0.375371 -0.242805 0.183774 -0.339248 -1.420322 -1.394624 0.847708 -11.188523 -4.439798 -5.373237 -0.000000 -0.000000 -0.000000 -0.000000 -0.000000 -0.000000 -0.000000 -0.000000 -0.000000 -0.000000 -0.000000 -0.000000 -0.000000 0.000000 -0.000000 -0.000000 -0.000000 -0.000000 -0.000000 0.000000 -0.000000 -0.000000 -0.000000 -0.000000 -0.000000 -0.000000 -0.000000 1.869610 -13.239139 -3.432438 1.579431 -26.407217 -58.875609 -0.000029 -57.398362 -0.000035 28.922853 3.248587 43.691996 6.610608 1.798259 20.801497 2.716389 20.172564 -24.389164 0.000001 0.000001 -0.000000 -0.186113 2.795738 -27.036988 0.404394 2.140669 -21.392755 -0.000002 -0.000000 -0.000000 1.290367 7.326178 -16.409926 0.339927 1.968289 -19.594594 0.000000 0.000001 -0.000001 1.806365 9.813048 -14.253478 0.211724 1.562290 -15.435133 -0.000001 0.000000 0.000002 2.027077 10.883250 -13.771963 0.163555 1.376013 -13.556314 0.000000 0.000001 -0.000001 0.000003 -0.000001 -0.000001 2.994990 -4.367070 8.425678 -4.853465 37.326014 65.092645 0.000014 53.628497 -0.000032 43.672824 5.415836 -36.087950 -9.383513 -1.613341 -17.604714 3.557104 -24.337018 34.656841 -0.000000 0.000000 -0.000000 2.957835 1.012826 13.529993 0.472451 -2.045658 26.006739 -0.000000 0.000000 -0.000001 0.105544 -3.665059 2.525366 0.585000 -2.261681 29.000584 0.000000 -0.000002 -0.000001 0.456440 -7.644376 4.305919 0.107460 -0.995739 12.319038 -0.000004 0.000001 -0.000002 -11.162315 -10.227930 7.169804 0.029114 -0.520522 6.403071 0.000001 -0.000000 0.000000 -0.000001 0.000001 0.000001 -0.000000 -0.000000 -0.000000 -0.000000 0.000000 -0.000000 -0.000000 -0.000000 -0.000000 -0.000000 -0.000000 -0.000000 -0.000000 -0.000000 -0.000000 -0.000000 0.000000 0.000000 -0.000000 -0.000000 -0.000000 -0.000000 -0.000000 -0.000000 -0.000000 -0.000000 -0.000000 -0.000000 0.000000 0.000000 -0.000000 -0.000000 -0.000000 -0.000000 -0.000000 -0.000000 -0.000000 -0.000000 -0.000000 
